<?xml version="1.0" standalone="no"?>
<!DOCTYPE svg PUBLIC "-//W3C//DTD SVG 20010904//EN"
 "http://www.w3.org/TR/2001/REC-SVG-20010904/DTD/svg10.dtd">
<svg version="1.0" xmlns="http://www.w3.org/2000/svg"
 width="1080.000000pt" height="1080.000000pt" viewBox="0 0 1080.000000 1080.000000"
 preserveAspectRatio="xMidYMid meet">
<metadata>
Created by potrace 1.11, written by Peter Selinger 2001-2013
</metadata>
<g transform="translate(0.000000,1080.000000) scale(0.100000,-0.100000)"
fill="#000000" stroke="none">
<path d="M0 5400 l0 -5400 5400 0 5400 0 0 5400 0 5400 -5400 0 -5400 0 0
-5400z m6687 1856 c-3 -8 -131 -197 -284 -420 l-278 -406 -1382 0 -1383 0 0
-370 0 -370 1125 0 c619 0 1125 -2 1125 -5 0 -2 -113 -169 -251 -370 l-251
-365 -874 0 -874 0 0 -365 0 -365 620 0 c341 0 620 -2 620 -6 0 -3 -122 -183
-271 -400 l-270 -394 -720 0 -719 0 0 1925 0 1925 2036 0 c1737 0 2035 -2
2031 -14z m1381 -707 l2 -717 -847 -1206 -848 -1206 -652 0 c-359 0 -653 2
-653 6 0 5 1435 2151 2247 3362 l324 482 212 -2 212 -3 3 -716z m-1 -3126 c-2
-2 -173 -2 -381 -1 l-377 3 378 609 378 609 3 -608 c1 -335 1 -610 -1 -612z"/>
</g>
</svg>
